ffmpeg version 2025-07-10-git-82aeee3c19-essentials_build-www.gyan.dev Copyright (c) 2000-2025 the FFmpeg developers
  built with gcc 15.1.0 (Rev6, Built by MSYS2 project)
  configuration: --enable-gpl --enable-version3 --enable-static --disable-w32threads --disable-autodetect --enable-fontconfig --enable-iconv --enable-gnutls --enable-libxml2 --enable-gmp --enable-bzlib --enable-lzma --enable-zlib --enable-libsrt --enable-libssh --enable-libzmq --enable-avisynth --enable-sdl2 --enable-libwebp --enable-libx264 --enable-libx265 --enable-libxvid --enable-libaom --enable-libopenjpeg --enable-libvpx --enable-mediafoundation --enable-libass --enable-libfreetype --enable-libfribidi --enable-libharfbuzz --enable-libvidstab --enable-libvmaf --enable-libzimg --enable-amf --enable-cuda-llvm --enable-cuvid --enable-dxva2 --enable-d3d11va --enable-d3d12va --enable-ffnvcodec --enable-libvpl --enable-nvdec --enable-nvenc --enable-vaapi --enable-openal --enable-libgme --enable-libopenmpt --enable-libopencore-amrwb --enable-libmp3lame --enable-libtheora --enable-libvo-amrwbenc --enable-libgsm --enable-libopencore-amrnb --enable-libopus --enable-libspeex --enable-libvorbis --enable-librubberband
  libavutil      60.  4.101 / 60.  4.101
  libavcodec     62.  6.100 / 62.  6.100
  libavformat    62.  1.102 / 62.  1.102
  libavdevice    62.  0.100 / 62.  0.100
  libavfilter    11.  1.100 / 11.  1.100
  libswscale      9.  0.100 /  9.  0.100
  libswresample   6.  0.100 /  6.  0.100
Input #0, mov,mp4,m4a,3gp,3g2,mj2, from 'temp.mp4':
  Metadata:
    major_brand     : isom
    minor_version   : 512
    compatible_brands: isomiso2avc1mp41
    encoder         : Lavf62.1.102
  Duration: 00:00:48.02, start: 0.000000, bitrate: 10981 kb/s
  Stream #0:0[0x1](und): Video: h264 (Main) (avc1 / 0x31637661), yuv420p(progressive), 1080x1920 [SAR 1:1 DAR 9:16], 10806 kb/s, 60 fps, 60 tbr, 15360 tbn, start 0.021029 (default)
    Metadata:
      handler_name    : VideoHandler
      vendor_id       : [0][0][0][0]
      encoder         : Lavc62.6.100 h264_nvenc
  Stream #0:1[0x2](und): Audio: aac (LC) (mp4a / 0x6134706D), 48000 Hz, stereo, fltp, 166 kb/s (default)
    Metadata:
      handler_name    : SoundHandler
      vendor_id       : [0][0][0][0]
[mp3 @ 0000021d0eb7b300] Estimating duration from bitrate, this may be inaccurate
Input #1, mp3, from '//nasfmc/Ổ Sever Mới/Định/Satisfy ASMR/SHORT AI/render nhac\1.mp3':
  Metadata:
    date            : 2025-09-30 08:18
    id3v2_priv.XMP  : <?xpacket begin="\xef\xbb\xbf" id="W5M0MpCehiHzreSzNTczkc9d"?>\x0a<x:xmpmeta xmlns:x="adobe:ns:meta/" x:xmptk="Adobe XMP Core 7.1-c000 79.4d2f597, 2021/09/01-20:51:22        ">\x0a <rdf:RDF xmlns:rdf="http://www.w3.org/1999/02/22-rdf-syntax-ns#">\x0a  <rd
  Duration: 00:00:48.02, start: 0.000000, bitrate: 259 kb/s
  Stream #1:0: Audio: mp3 (mp3float), 44100 Hz, stereo, fltp, 256 kb/s
Stream mapping:
  Stream #0:1 (aac) -> amix
  Stream #1:0 (mp3float) -> volume:default
  Stream #0:0 -> #0:0 (copy)
  amix:default -> Stream #0:1 (aac)
Press [q] to stop, [?] for help
Output #0, mp4, to '//nasfmc/Ổ Sever Mới/Định/Satisfy ASMR/SHORT AI/ASMR/1.HOÀN THIỆN/AI ghép/30\317.mp4':
  Metadata:
    major_brand     : isom
    minor_version   : 512
    compatible_brands: isomiso2avc1mp41
    encoder         : Lavf62.1.102
  Stream #0:0(und): Video: h264 (Main) (avc1 / 0x31637661), yuv420p(progressive), 1080x1920 [SAR 1:1 DAR 9:16], q=2-31, 10806 kb/s, 60 fps, 60 tbr, 15360 tbn (default)
    Metadata:
      handler_name    : VideoHandler
      vendor_id       : [0][0][0][0]
      encoder         : Lavc62.6.100 h264_nvenc
  Stream #0:1: Audio: aac (LC) (mp4a / 0x6134706D), 48000 Hz, stereo, fltp, 128 kb/s
    Metadata:
      encoder         : Lavc62.6.100 aac
frame=  944 fps=0.0 q=-1.0 size=   22272KiB time=00:00:15.80 bitrate=11541.8kbits/s speed=31.5x elapsed=0:00:00.50    frame= 2077 fps=2033 q=-1.0 size=   47104KiB time=00:00:34.66 bitrate=11131.0kbits/s speed=33.9x elapsed=0:00:01.02    [out#0/mp4 @ 0000021d0e5ef940] video:63320KiB audio:778KiB subtitle:0KiB other streams:0KiB global headers:0KiB muxing overhead: 0.119366%
frame= 2880 fps=2123 q=-1.0 Lsize=   64175KiB time=00:00:47.97 bitrate=10959.1kbits/s speed=35.4x elapsed=0:00:01.35    
[aac @ 0000021d0e8122c0] Qavg: 556.698
